<?xml version="1.0" encoding="UTF-8"?>
<svg xmlns="http://www.w3.org/2000/svg" xmlns:xlink="http://www.w3.org/1999/xlink" xmlns:v="https://vecta.io/nano" viewBox="0 0 134.54 66.4">
  <g fill="#fbc42e">
    <path d="M132.95 48.85h-2.38c-.03 0-.05.02-.05.05v9.76a.81.81 0 0 1-.82.82.87.87 0 0 1-.49-.16l-14.48-10.85c-.02-.01-.03-.02-.04-.02 0 0-.07 0-.07.07v17.12c0 .17.14.32.31.32h1.84c.17 0 .31-.14.31-.32V54.87a.81.81 0 0 1 .82-.82.87.87 0 0 1 .49.16l14.48 10.85c.02.02.03.02.04.02 0 0 .07 0 .07-.07V48.9c.02-.03 0-.05-.03-.05zM21.68 59.37c-.38.24-.7.68-1 1.35-.95 2.13-3.08 3.45-5.56 3.45-1.38 0-2.76-.42-3.9-1.19-1.48-1-2.51-2.64-2.85-4.52-.34-1.91.08-3.87 1.16-5.36 1.28-1.78 3.32-2.84 5.44-2.84 1.66 0 3.25.67 4.45 1.87.35.35.86.76 1.31.76.5 0 .99-.52 1.45-1.08.13-.16.2-.3.19-.37-.01-.04-.04-.14-.23-.33-.2-.19-.48-.38-.75-.57l-.55-.39a10 10 0 0 0-2.91-1.6 9.51 9.51 0 0 0-3.12-.53c-1.95 0-3.83.61-5.41 1.76a8.69 8.69 0 0 0-2.07 2.12 9.48 9.48 0 0 0-1.28 2.66c-.29.96-.42 1.94-.4 2.93.02 1.01.21 2 .56 2.94.32.87.79 1.69 1.37 2.44.57.72 1.25 1.36 2.02 1.89.76.53 1.59.94 2.47 1.22a8.8 8.8 0 0 0 2.73.43l.85-.04c2.26-.22 4.12-1.02 5.54-2.37 1.26-1.2 2.16-2.81 2.66-4.8l-1.06-.09c-.47-.02-.81.07-1.11.26z"></path>
    <use xlink:href="#B"></use>
    <path d="M65.27 59.37c-.38.24-.7.68-1 1.35-.95 2.13-3.08 3.45-5.56 3.45-1.38 0-2.76-.42-3.9-1.19-1.48-1-2.51-2.64-2.85-4.52-.34-1.91.08-3.87 1.16-5.36 1.28-1.78 3.32-2.84 5.44-2.84 1.66 0 3.25.67 4.45 1.87.35.35.86.76 1.31.76.5 0 .99-.52 1.45-1.08.13-.16.2-.3.19-.37-.01-.04-.04-.14-.23-.33-.2-.19-.48-.38-.75-.57l-.55-.39a10 10 0 0 0-2.91-1.6 9.51 9.51 0 0 0-3.12-.53c-1.95 0-3.83.61-5.41 1.76a8.69 8.69 0 0 0-2.07 2.12 9.48 9.48 0 0 0-1.28 2.66c-.29.96-.42 1.94-.4 2.93.02 1.01.21 2 .56 2.94.32.87.79 1.69 1.37 2.44.57.72 1.25 1.36 2.02 1.89.76.53 1.59.94 2.47 1.22a8.8 8.8 0 0 0 2.73.43l.85-.04c2.26-.22 4.12-1.02 5.54-2.37 1.26-1.2 2.16-2.81 2.66-4.8l-1.06-.09c-.47-.02-.82.07-1.11.26z"></path>
    <use xlink:href="#B" x="43.59"></use>
    <path d="M108.57 50.79c-.85-.86-1.84-1.54-2.94-2.01a9.06 9.06 0 0 0-3.6-.74h-.02a8.99 8.99 0 0 0-3.58.73 9.25 9.25 0 0 0-2.93 1.98 9.19 9.19 0 0 0-1.96 2.93c-.48 1.13-.71 2.33-.71 3.57.01 1.22.26 2.4.74 3.53.47 1.09 1.14 2.07 2 2.91.85.85 1.84 1.51 2.93 1.98 1.13.48 2.32.73 3.53.73h.1c1.2-.01 2.37-.27 3.47-.75 1.07-.47 2.04-1.14 2.88-1.98s1.5-1.82 1.97-2.9c.48-1.12.74-2.3.75-3.51.02-1.22-.22-2.41-.68-3.53a8.94 8.94 0 0 0-1.95-2.94zm-1.91 11.34c-1.28 1.29-2.93 2-4.64 2H102c-1.71-.01-3.36-.72-4.63-2.01-1.32-1.34-2.07-3.17-2.04-5.02.05-3.68 2.99-6.73 6.55-6.8h.12c3.61 0 6.68 3.14 6.71 6.85.02 1.83-.73 3.65-2.05 4.98zM0 50.29h2.21v2.21H0zm0 4.42h2.21v11.68H0z"></path>
    <path d="M0 50.29h2.21v2.21H0zm14.4-37.43h94.41V0H1.54v38.26H14.4zM121.68 25.4H27.26v12.86h107.28V0h-12.86z"></path>
  </g>
  <defs>
    <path id="B" d="M43.19 50.79c-.85-.86-1.84-1.54-2.94-2.01a9.06 9.06 0 0 0-3.6-.74h-.02a8.99 8.99 0 0 0-3.58.73 9.25 9.25 0 0 0-2.93 1.98 9.19 9.19 0 0 0-1.96 2.93c-.48 1.13-.71 2.33-.71 3.57.01 1.22.26 2.4.74 3.53.47 1.09 1.14 2.07 2 2.91.85.85 1.84 1.51 2.93 1.98 1.13.48 2.32.73 3.53.73h.1c1.2-.01 2.37-.27 3.47-.75 1.07-.47 2.04-1.14 2.88-1.98s1.5-1.82 1.97-2.9c.48-1.12.74-2.3.75-3.51.02-1.22-.22-2.41-.68-3.53a8.94 8.94 0 0 0-1.95-2.94zm-1.91 11.34c-1.28 1.29-2.93 2-4.64 2h-.02c-1.71-.01-3.36-.72-4.63-2.01-1.32-1.34-2.07-3.17-2.04-5.02.05-3.68 2.99-6.73 6.55-6.8h.12c3.61 0 6.68 3.14 6.71 6.85.02 1.83-.73 3.65-2.05 4.98z"></path>
  </defs>
</svg>
